# xmcd CD database file
#
# Track frame offsets:
#	150
#	18360
#	33417
#	49968
#	64705
#	85019
#	98697
#	119436
#	133703
#	151251
#	166982
#
# Disc length: 2468 seconds
#
# Revision: 3
# Processed by: cddbd v1.5.2PL0 Copyright (c) Steve Scherf et al.
# Submitted via: CDex 1.51
#
DISCID=8509a20b
DTITLE=Luke Bryan - I'll Stay Me
DYEAR=2007
DGENRE=Country
TTITLE0=All My Friends Say
TTITLE1=Baby's On The Way
TTITLE2=The Car In Front Of Me
TTITLE3=Pray About Everything
TTITLE4=We Rode In Trucks
TTITLE5=I'll Stay Me
TTITLE6=First Love Song
TTITLE7=Country Man
TTITLE8=Over The River
TTITLE9=You Make Me Want To
TTITLE10=Tackle Box
EXTD=YEAR: 2007
EXTT0=
EXTT1=
EXTT2=
EXTT3=
EXTT4=
EXTT5=
EXTT6=
EXTT7=
EXTT8=
EXTT9=
EXTT10=
PLAYORDER=
